<svg width="40" height="40" viewBox="0 0 40 40" fill="none" xmlns="http://www.w3.org/2000/svg">
<g clip-path="url(#clip0_346_19)">
<path d="M39.9991 24.9834V4.65209C39.9991 2.08332 37.9163 0.000549319 35.3476 0.000549319H4.65154C2.08285 0.000471195 0 2.08332 0 4.65209V25C0 25.0056 0.000781233 25.0109 0.000859356 25.0165V28.6816C0.000859356 31.2503 2.08206 33.3331 4.65076 33.3331H12.8651L12.0318 36.6664H11.6664C10.7459 36.6664 9.99978 37.4126 9.99978 38.333C9.99978 39.2535 10.7459 39.9996 11.6664 39.9996H13.333H26.6661H28.3327C29.2531 39.9996 29.9993 39.2535 29.9993 38.333C29.9993 37.4126 29.2531 36.6664 28.3327 36.6664H27.9673L27.1339 33.3331H35.3483C37.9171 33.3331 39.9998 31.2503 39.9998 28.6816V25C40 24.9944 39.9992 24.989 39.9991 24.9834ZM3.33329 4.65209C3.33329 3.92421 3.92374 3.33376 4.65162 3.33376H35.3476C36.0755 3.33376 36.6659 3.92421 36.6659 4.65209V23.3333H3.33329V4.65209ZM24.5315 36.6664H15.4676L16.301 33.3331H23.6982L24.5315 36.6664ZM36.6667 28.6816C36.6667 29.4094 36.0763 29.9999 35.3484 29.9999H24.9995H14.9997H4.65076C3.92351 29.9999 3.33415 29.4101 3.33415 28.6816V26.6666H36.6668V28.6816H36.6667Z" fill="#00691E"/>
<path d="M26.6662 5.00031C22.0642 5.00031 18.333 8.7314 18.333 13.3335C18.333 17.9356 22.0641 21.6667 26.6662 21.6667C31.2682 21.6667 34.9994 17.9356 34.9994 13.3335C34.9994 8.7314 31.2683 5.00031 26.6662 5.00031ZM23.3195 9.6195C23.3405 9.6006 23.3622 9.58263 23.3835 9.56411C23.4277 9.5256 23.4723 9.48732 23.5178 9.45029C23.5435 9.42943 23.5698 9.40919 23.596 9.3888C23.6387 9.35552 23.6817 9.32271 23.7255 9.29084C23.7535 9.27045 23.7818 9.25045 23.8102 9.2306C23.8541 9.20006 23.8985 9.17022 23.9434 9.141C23.9721 9.12225 24.0009 9.10358 24.0301 9.08545C24.0774 9.056 24.1255 9.02772 24.1739 8.99991C24.2014 8.98405 24.2286 8.9678 24.2565 8.95241C24.314 8.92069 24.3725 8.89061 24.4313 8.86116C24.4508 8.85139 24.4698 8.84085 24.4894 8.83139C24.5683 8.79319 24.6482 8.75702 24.7292 8.72296C24.7487 8.71476 24.7688 8.70757 24.7884 8.6996C24.8504 8.67445 24.9127 8.64999 24.9759 8.62726C24.9837 8.62445 24.9918 8.62202 24.9997 8.61921V11.6668H21.9521C21.9549 11.6589 21.9573 11.6509 21.9601 11.6431C21.9829 11.5799 22.0073 11.5175 22.0325 11.4555C22.0404 11.4359 22.0475 11.4159 22.0557 11.3964C22.0898 11.3154 22.126 11.2354 22.1642 11.1567C22.1737 11.137 22.1843 11.1178 22.1941 11.0983C22.2235 11.0396 22.2535 10.9811 22.2852 10.9237C22.3005 10.8959 22.3168 10.8686 22.3327 10.8411C22.3606 10.7928 22.3889 10.7446 22.4182 10.6973C22.4364 10.6682 22.4551 10.6393 22.4739 10.6106C22.503 10.5657 22.5328 10.5214 22.5634 10.4775C22.5832 10.4491 22.6033 10.4207 22.6237 10.3927C22.6556 10.349 22.6883 10.306 22.7215 10.2634C22.742 10.2371 22.7622 10.2108 22.7831 10.185C22.8202 10.1394 22.8584 10.0949 22.8969 10.0507C22.9154 10.0294 22.9334 10.0077 22.9522 9.98684C23.0682 9.85817 23.1909 9.73559 23.3195 9.6195ZM26.6662 18.3334C24.4896 18.3334 22.6385 16.9418 21.952 15.0001H26.6662C27.5866 15.0001 28.3328 14.2539 28.3328 13.3335V8.61929C30.2744 9.30592 31.6661 11.1569 31.6661 13.3335C31.6661 16.0946 29.4274 18.3334 26.6662 18.3334Z" fill="#00691E"/>
<path d="M14.9998 6.66693H6.6666C5.74616 6.66693 5 7.41309 5 8.33354C5 9.25398 5.74616 10.0001 6.6666 10.0001H14.9998C15.9202 10.0001 16.6664 9.25398 16.6664 8.33354C16.6664 7.41309 15.9202 6.66693 14.9998 6.66693Z" fill="#00691E"/>
<path d="M6.6666 15.0001H9.99989C10.9203 15.0001 11.6665 14.2539 11.6665 13.3335C11.6665 12.413 10.9203 11.6669 9.99989 11.6669H6.6666C5.74616 11.6669 5 12.413 5 13.3335C5 14.2539 5.74616 15.0001 6.6666 15.0001Z" fill="#00691E"/>
<path d="M13.3332 16.6667H6.6666C5.74616 16.6667 5 17.4129 5 18.3334C5 19.2538 5.74616 20 6.6666 20H13.3331C14.2536 20 14.9997 19.2538 14.9997 18.3334C14.9998 17.4129 14.2536 16.6667 13.3332 16.6667Z" fill="#00691E"/>
</g>
<defs>
<clipPath id="clip0_346_19">
<rect width="40" height="40" fill="white"/>
</clipPath>
</defs>
</svg>
