<svg width="15" height="15" viewBox="0 0 15 15" fill="none" xmlns="http://www.w3.org/2000/svg">
<path d="M11.875 9.375C10.8125 9.375 10 10.1875 10 11.25C10 12.3125 10.8125 13.125 11.875 13.125C12.9375 13.125 13.75 12.3125 13.75 11.25C13.75 10.1875 12.9375 9.375 11.875 9.375ZM11.875 11.875C11.5 11.875 11.25 11.625 11.25 11.25C11.25 10.875 11.5 10.625 11.875 10.625C12.25 10.625 12.5 10.875 12.5 11.25C12.5 11.625 12.25 11.875 11.875 11.875Z" fill="#00371D"/>
<path d="M13.375 7.8125C13.0625 7.6875 12.8125 7.625 12.5 7.5625V5.625C13.1875 5.5 13.75 4.875 13.75 4.0625C13.75 3.1875 13.0625 2.5 12.1875 2.5H10.625C10.25 2.5 10 2.75 10 3.125C10 3.5 10.25 3.75 10.625 3.75H12.1875C12.375 3.75 12.5 3.875 12.5 4.0625C12.5 4.25 12.375 4.375 12.1875 4.375H11.875C11.5 4.375 11.25 4.625 11.25 5V7.5625C9.875 7.8125 8.8125 8.75 8.375 10H7.5V6.25H8.125C8.5 6.25 8.75 6 8.75 5.625C8.75 5.25 8.5 5 8.125 5H3.125C2.75 5 2.5 5.25 2.5 5.625C2.5 6 2.75 6.25 3.125 6.25H4.1875C2.4375 7.125 1.25 8.75 1.25 10.625C1.25 11 1.5 11.25 1.875 11.25H1.9375C2.0625 12.3125 3 13.125 4.0625 13.125C5.125 13.125 6.0625 12.3125 6.1875 11.25H6.875H8.125C8.125 11.625 8.375 11.875 8.75 11.875C9.125 11.875 9.375 11.625 9.375 11.25C9.375 9.875 10.5 8.75 11.875 8.75C12.25 8.75 12.5625 8.8125 12.875 8.9375C13.1875 9.0625 13.5625 8.9375 13.6875 8.625C13.8125 8.3125 13.6875 7.9375 13.375 7.8125ZM4.0625 11.875C3.625 11.875 3.3125 11.625 3.1875 11.25H4.9375C4.8125 11.625 4.5 11.875 4.0625 11.875ZM6.25 10H5.625H2.5625C2.875 8.375 4.375 7.125 6.25 6.9375V10Z" fill="#00371D"/>
</svg>
