<svg width="15" height="15" viewBox="0 0 15 15" fill="none" xmlns="http://www.w3.org/2000/svg">
<path d="M5.625 4.375H2.875C2.52497 4.375 2.34995 4.375 2.21626 4.44312C2.09866 4.50304 2.00304 4.59866 1.94312 4.71626C1.875 4.84995 1.875 5.02497 1.875 5.375V12.125C1.875 12.4751 1.875 12.6501 1.94312 12.7838C2.00304 12.9014 2.09866 12.9969 2.21626 13.0569C2.34995 13.125 2.52497 13.125 2.875 13.125H5.625M5.625 13.125H9.375M5.625 13.125V2.875C5.625 2.52497 5.625 2.34995 5.69312 2.21626C5.75304 2.09866 5.84866 2.00304 5.96626 1.94312C6.09995 1.875 6.27494 1.875 6.625 1.875H8.375C8.72506 1.875 8.90006 1.875 9.03375 1.94312C9.15138 2.00304 9.24694 2.09866 9.30687 2.21626C9.375 2.34995 9.375 2.52497 9.375 2.875V13.125M9.375 13.125H12.125C12.4751 13.125 12.6501 13.125 12.7838 13.0569C12.9014 12.9969 12.9969 12.9014 13.0569 12.7838C13.125 12.6501 13.125 12.4751 13.125 12.125V7.875C13.125 7.52494 13.125 7.34994 13.0569 7.21625C12.9969 7.09862 12.9014 7.00306 12.7838 6.94313C12.6501 6.875 12.4751 6.875 12.125 6.875H9.375" stroke="#00371D" stroke-linecap="round" stroke-linejoin="round"/>
</svg>
