<svg width="15" height="15" viewBox="0 0 15 15" fill="none" xmlns="http://www.w3.org/2000/svg">
<path d="M7.5 5V7.5L9.0625 9.0625" fill="#00371D"/>
<path d="M7.5 5V7.5L9.0625 9.0625" stroke="#00371D" stroke-linecap="round" stroke-linejoin="round"/>
<path d="M2.71116 4.29413L2.24241 4.29649C2.2437 4.55352 2.45176 4.76158 2.7088 4.76288L2.71116 4.29413ZM4.29977 4.77087C4.55865 4.77217 4.76957 4.56336 4.77087 4.30448C4.77217 4.0456 4.56336 3.83468 4.30448 3.83338L4.29977 4.77087ZM3.17191 2.70081C3.1706 2.44193 2.95969 2.23311 2.70081 2.23441C2.44193 2.23572 2.23311 2.44664 2.23442 2.70551L3.17191 2.70081ZM2.34375 7.5C2.34375 7.24113 2.13388 7.03125 1.875 7.03125C1.61612 7.03125 1.40625 7.24113 1.40625 7.5H2.34375ZM10.5472 12.7782C10.7713 12.6486 10.8479 12.3619 10.7183 12.1378C10.5886 11.9137 10.3019 11.8371 10.0778 11.9667L10.5472 12.7782ZM11.9667 10.0778C11.8371 10.3019 11.9137 10.5886 12.1378 10.7183C12.3619 10.8479 12.6486 10.7713 12.7782 10.5472L11.9667 10.0778ZM3.21271 3.16954C3.02874 3.35168 3.02726 3.64847 3.20941 3.83244C3.39155 4.01641 3.68834 4.01789 3.87231 3.83574L3.21271 3.16954ZM11.7889 3.21116C9.40131 0.823537 5.54301 0.799363 3.17119 3.17119L3.8341 3.8341C5.83354 1.83466 9.09825 1.84628 11.1261 3.87408L11.7889 3.21116ZM3.17119 3.17119L2.3797 3.96268L3.04261 4.62559L3.8341 3.8341L3.17119 3.17119ZM2.7088 4.76288L4.29977 4.77087L4.30448 3.83338L2.71351 3.82539L2.7088 4.76288ZM3.1799 4.29177L3.17191 2.70081L2.23442 2.70551L2.24241 4.29649L3.1799 4.29177ZM7.5 2.34375C10.3477 2.34375 12.6562 4.65228 12.6562 7.5H13.5938C13.5938 4.13451 10.8655 1.40625 7.5 1.40625V2.34375ZM7.5 12.6562C4.65228 12.6562 2.34375 10.3477 2.34375 7.5H1.40625C1.40625 10.8655 4.13451 13.5938 7.5 13.5938V12.6562ZM10.0778 11.9667C9.31988 12.4052 8.43994 12.6562 7.5 12.6562V13.5938C8.60919 13.5938 9.65044 13.297 10.5472 12.7782L10.0778 11.9667ZM12.6562 7.5C12.6562 8.43994 12.4052 9.31988 11.9667 10.0778L12.7782 10.5472C13.297 9.65044 13.5938 8.60919 13.5938 7.5H12.6562ZM3.87231 3.83574C4.80442 2.91287 6.08529 2.34375 7.5 2.34375V1.40625C5.82839 1.40625 4.31321 2.07994 3.21271 3.16954L3.87231 3.83574Z" fill="#00371D"/>
</svg>
