<svg width="15" height="15" viewBox="0 0 15 15" fill="none" xmlns="http://www.w3.org/2000/svg">
<g clip-path="url(#clip0_70_1613)">
<path d="M13.7062 4.22501L11.6 12.6813C11.45 13.3125 10.8875 13.75 10.2375 13.75H2.02496C1.08121 13.75 0.40622 12.8249 0.687468 11.9187L3.31871 3.46878C3.49996 2.88128 4.04372 2.47498 4.65622 2.47498H12.3437C12.9375 2.47498 13.4312 2.83748 13.6375 3.33748C13.7562 3.60623 13.7812 3.91251 13.7062 4.22501Z" stroke="#00371D" stroke-miterlimit="10"/>
<path d="M10 13.75H12.9875C13.7938 13.75 14.425 13.0687 14.3688 12.2625L13.75 3.75" stroke="#00371D" stroke-miterlimit="10" stroke-linecap="round" stroke-linejoin="round"/>
<path d="M6.05005 3.9875L6.70006 1.28754" stroke="#00371D" stroke-miterlimit="10" stroke-linecap="round" stroke-linejoin="round"/>
<path d="M10.2375 3.99379L10.825 1.28131" stroke="#00371D" stroke-miterlimit="10" stroke-linecap="round" stroke-linejoin="round"/>
<path d="M4.8125 7.5H9.81249" stroke="#00371D" stroke-miterlimit="10" stroke-linecap="round" stroke-linejoin="round"/>
<path d="M4.1875 10H9.18749" stroke="#00371D" stroke-miterlimit="10" stroke-linecap="round" stroke-linejoin="round"/>
</g>
<defs>
<clipPath id="clip0_70_1613">
<rect width="15" height="15" fill="white"/>
</clipPath>
</defs>
</svg>
