<svg width="40" height="40" viewBox="0 0 40 40" fill="none" xmlns="http://www.w3.org/2000/svg">
<path d="M10.8333 10.8333H10.85M29.1667 10.8333H29.1833M10.8333 29.1667H10.85M21.6667 21.6667H21.6833M29.1667 29.1667H29.1833M28.3333 35H35V28.3333M23.3333 27.5V35M35 23.3333H27.5M26 16.6667H32.3333C33.2668 16.6667 33.7335 16.6667 34.09 16.485C34.4037 16.3252 34.6585 16.0702 34.8183 15.7566C35 15.4001 35 14.9334 35 14V7.66667C35 6.73325 35 6.26653 34.8183 5.91002C34.6585 5.59642 34.4037 5.34145 34.09 5.18165C33.7335 5 33.2668 5 32.3333 5H26C25.0665 5 24.5998 5 24.2433 5.18165C23.9297 5.34145 23.6748 5.59642 23.515 5.91002C23.3333 6.26653 23.3333 6.73325 23.3333 7.66667V14C23.3333 14.9334 23.3333 15.4001 23.515 15.7566C23.6748 16.0702 23.9297 16.3252 24.2433 16.485C24.5998 16.6667 25.0665 16.6667 26 16.6667ZM7.66667 16.6667H14C14.9334 16.6667 15.4001 16.6667 15.7566 16.485C16.0702 16.3252 16.3252 16.0702 16.485 15.7566C16.6667 15.4001 16.6667 14.9334 16.6667 14V7.66667C16.6667 6.73325 16.6667 6.26653 16.485 5.91002C16.3252 5.59642 16.0702 5.34145 15.7566 5.18165C15.4001 5 14.9334 5 14 5H7.66667C6.73325 5 6.26653 5 5.91002 5.18165C5.59642 5.34145 5.34145 5.59642 5.18165 5.91002C5 6.26653 5 6.73325 5 7.66667V14C5 14.9334 5 15.4001 5.18165 15.7566C5.34145 16.0702 5.59642 16.3252 5.91002 16.485C6.26653 16.6667 6.73325 16.6667 7.66667 16.6667ZM7.66667 35H14C14.9334 35 15.4001 35 15.7566 34.8183C16.0702 34.6585 16.3252 34.4037 16.485 34.09C16.6667 33.7335 16.6667 33.2668 16.6667 32.3333V26C16.6667 25.0665 16.6667 24.5998 16.485 24.2433C16.3252 23.9297 16.0702 23.6748 15.7566 23.515C15.4001 23.3333 14.9334 23.3333 14 23.3333H7.66667C6.73325 23.3333 6.26653 23.3333 5.91002 23.515C5.59642 23.6748 5.34145 23.9297 5.18165 24.2433C5 24.5998 5 25.0665 5 26V32.3333C5 33.2668 5 33.7335 5.18165 34.09C5.34145 34.4037 5.59642 34.6585 5.91002 34.8183C6.26653 35 6.73325 35 7.66667 35Z" stroke="#00691E" stroke-width="3" stroke-linecap="round" stroke-linejoin="round"/>
</svg>
