<svg width="15" height="15" viewBox="0 0 15 15" fill="none" xmlns="http://www.w3.org/2000/svg">
<path d="M6.2443 10.3125L5.6344 10.6088C4.39631 10.9511 3.77727 11.1222 3.44357 10.762C3.10989 10.4018 3.28254 9.74888 3.62784 8.44294L3.71718 8.10513C3.81531 7.734 3.86437 7.54844 3.8397 7.36444C3.81502 7.18044 3.71941 7.01881 3.52819 6.69563L3.35409 6.40131C2.68115 5.26381 2.34469 4.69507 2.56941 4.24253C2.79412 3.78998 3.4312 3.75335 4.70536 3.68008L5.03499 3.66112C5.39707 3.6403 5.5781 3.62989 5.73597 3.54566C5.89384 3.46143 6.01065 3.31291 6.2443 3.01589L6.457 2.74546C7.27919 1.70021 7.69031 1.17758 8.16287 1.25808C8.63544 1.33858 8.85656 1.9689 9.29869 3.22952L9.41306 3.55566C9.53875 3.91389 9.60156 4.093 9.72381 4.22495C9.84606 4.35689 10.0139 4.42672 10.3495 4.56639L10.655 4.69354C11.8361 5.18503 12.4266 5.43078 12.494 5.93308C12.5514 6.36163 12.1956 6.73475 11.4683 7.36444" stroke="#00371D"/>
<path d="M9.53225 6.68062C8.91562 5.94279 8.60725 5.57388 8.25281 5.63071C7.89844 5.68752 7.73262 6.13246 7.401 7.02231L7.31519 7.2525C7.22094 7.50537 7.17381 7.63181 7.08212 7.72494C6.9905 7.81812 6.86462 7.86737 6.61287 7.966L6.38375 8.05575C5.49792 8.40269 5.05502 8.57612 5.0045 8.93069C4.95399 9.28525 5.32932 9.58612 6.07998 10.1877L6.27419 10.3434C6.4875 10.5144 6.59419 10.5999 6.65587 10.7169C6.71762 10.8339 6.72744 10.9692 6.74712 11.2398L6.765 11.4862C6.83419 12.4384 6.86881 12.9146 7.192 13.0769C7.51525 13.2392 7.913 12.9802 8.70856 12.4622L8.91437 12.3282C9.14044 12.181 9.2535 12.1074 9.38331 12.0866C9.51319 12.0657 9.64512 12.1001 9.90894 12.1687L10.1492 12.2312C11.0777 12.4728 11.5421 12.5936 11.7923 12.3394C12.0426 12.0851 11.9131 11.6242 11.6541 10.7024L11.5871 10.4639C11.5135 10.2019 11.4767 10.0709 11.4952 9.94106C11.5137 9.81119 11.5854 9.69712 11.7289 9.46894L11.8594 9.26125C12.3641 8.45825 12.6165 8.05681 12.4479 7.73737C12.2794 7.41794 11.8016 7.39206 10.846 7.34037L10.5987 7.32694C10.3272 7.31225 10.1914 7.30494 10.073 7.24544C9.95462 7.186 9.867 7.08119 9.69175 6.8715L9.53225 6.68062Z" stroke="#00371D"/>
</svg>
