<svg width="51" height="51" viewBox="0 0 51 51" fill="none" xmlns="http://www.w3.org/2000/svg">
<g clip-path="url(#clip0_344_14)">
<path d="M51 20.6534V12.5022C51 11.9252 50.5305 11.4557 49.9536 11.4557H49.2376V8.75702C49.2376 7.32968 48.0764 6.16847 46.649 6.16847H37.7819V6.11339C37.7819 4.68606 36.6206 3.52484 35.1933 3.52484H15.8067C14.3794 3.52484 13.2181 4.68606 13.2181 6.11339V6.16847H4.35097C2.92363 6.16847 1.76242 7.32968 1.76242 8.75702V11.4557H1.04644C0.469464 11.4557 0 11.9252 0 12.5022V20.6534C0 22.0166 0.701663 23.2186 1.76242 23.9187V45.8229H0.826134C0.369888 45.8229 0 46.1928 0 46.649C0 47.1053 0.369888 47.4752 0.826134 47.4752H50.1739C50.6301 47.4752 51 47.1053 51 46.649C51 46.1928 50.6301 45.8229 50.1739 45.8229H49.2376V23.9187C50.2983 23.2186 51 22.0166 51 20.6534ZM14.8704 6.11339C14.8704 5.59712 15.2904 5.17711 15.8067 5.17711H35.1933C35.7096 5.17711 36.1296 5.59712 36.1296 6.11339V6.99031C36.1296 6.99174 36.1294 6.99306 36.1294 6.9946C36.1294 6.99526 36.1295 6.99604 36.1295 6.99681C36.1283 7.51198 35.7088 7.93089 35.1933 7.93089H15.8067C15.2904 7.93089 14.8704 7.51088 14.8704 6.9946V6.11339ZM3.41469 8.75702C3.41469 8.24074 3.83469 7.82074 4.35097 7.82074H13.3541C13.6997 8.84404 14.6682 9.58316 15.8067 9.58316H35.1933C36.3318 9.58316 37.3003 8.84404 37.6459 7.82074H46.649C47.1653 7.82074 47.5853 8.24074 47.5853 8.75702V11.4557H3.41469V8.75702ZM43.1793 13.108V20.6534C43.1793 21.8985 42.1663 22.9115 40.9212 22.9115C39.676 22.9115 38.6631 21.8985 38.6631 20.6534V13.108H43.1793ZM37.0108 13.108V20.6534C37.0108 21.8985 35.9978 22.9115 34.7527 22.9115C33.5075 22.9115 32.4946 21.8985 32.4946 20.6534V13.108H37.0108ZM30.8423 13.108V20.6534C30.8423 21.8985 29.8294 22.9115 28.5842 22.9115C27.3391 22.9115 26.3261 21.8985 26.3261 20.6534V13.108H30.8423ZM24.6739 13.108V20.6534C24.6739 21.8985 23.6609 22.9115 22.4158 22.9115C21.1706 22.9115 20.1577 21.8985 20.1577 20.6534V13.108H24.6739ZM18.5054 13.108V20.6534C18.5054 21.8985 17.4924 22.9115 16.2473 22.9115C15.0022 22.9115 13.9892 21.8985 13.9892 20.6534V13.108H18.5054ZM12.3369 13.108V20.6534C12.3369 21.8985 11.324 22.9115 10.0788 22.9115C8.83368 22.9115 7.82073 21.8985 7.82073 20.6534V13.108H12.3369ZM1.65227 20.6534V13.108H6.16847V20.6534C6.16847 21.8985 5.15552 22.9115 3.91037 22.9115C2.66522 22.9115 1.65227 21.8985 1.65227 20.6534ZM15.8618 45.8229H6.93952V43.9503H15.8618V45.8229ZM15.8618 42.2981H6.93952V28.0886H15.8618V42.2981ZM47.5853 45.8229H17.514V27.2624C17.514 26.8062 17.1442 26.4363 16.6879 26.4363H6.11339C5.65714 26.4363 5.28726 26.8062 5.28726 27.2624V45.8229H3.41469V24.5312C3.57716 24.5519 3.74239 24.5637 3.91037 24.5637C5.16257 24.5637 6.2784 23.9713 6.9946 23.0529C7.7108 23.9713 8.82663 24.5637 10.0788 24.5637C11.331 24.5637 12.4469 23.9713 13.1631 23.0529C13.8793 23.9713 14.9951 24.5637 16.2473 24.5637C17.4995 24.5637 18.6153 23.9713 19.3315 23.0529C20.0477 23.9713 21.1636 24.5637 22.4158 24.5637C23.668 24.5637 24.7838 23.9713 25.5 23.0529C26.2162 23.9713 27.332 24.5637 28.5842 24.5637C29.8364 24.5637 30.9523 23.9713 31.6685 23.0529C32.3847 23.9713 33.5005 24.5637 34.7527 24.5637C36.0049 24.5637 37.1207 23.9713 37.8369 23.0529C38.5531 23.9713 39.669 24.5637 40.9212 24.5637C42.1734 24.5637 43.2892 23.9713 44.0054 23.0529C44.7216 23.9713 45.8374 24.5637 47.0896 24.5637C47.2576 24.5637 47.4228 24.5519 47.5853 24.5312V45.8229ZM47.0896 22.9115C45.8445 22.9115 44.8315 21.8985 44.8315 20.6534V13.108H49.3477V20.6534C49.3477 21.8985 48.3348 22.9115 47.0896 22.9115Z" fill="#00691E"/>
<path d="M44.8867 26.4363H20.2129C19.7566 26.4363 19.3867 26.8062 19.3867 27.2624V43.1242C19.3867 43.5804 19.7566 43.9503 20.2129 43.9503H44.8867C45.343 43.9503 45.7129 43.5804 45.7129 43.1242V27.2624C45.7129 26.8062 45.343 26.4363 44.8867 26.4363ZM44.0606 42.298H38.6632V39.5443H41.3619C41.8181 39.5443 42.188 39.1744 42.188 38.7181C42.188 38.2619 41.8181 37.892 41.3619 37.892H34.3122C33.856 37.892 33.4861 38.2619 33.4861 38.7181C33.4861 39.1744 33.856 39.5443 34.3122 39.5443H37.0109V42.298H28.0887V39.5443H30.7874C31.2436 39.5443 31.6135 39.1744 31.6135 38.7181C31.6135 38.2619 31.2436 37.892 30.7874 37.892H23.7377C23.2814 37.892 22.9116 38.2619 22.9116 38.7181C22.9116 39.1744 23.2814 39.5443 23.7377 39.5443H26.4364V42.298H21.039V28.0885H26.4364V29.18C24.9208 29.5518 23.7928 30.9211 23.7928 32.5497C23.7928 33.0059 24.1627 33.3758 24.6189 33.3758H26.4364V33.4309C26.4364 33.8871 26.8063 34.257 27.2625 34.257C27.7188 34.257 28.0887 33.8871 28.0887 33.4309V33.3758H29.9062C30.3624 33.3758 30.7323 33.0059 30.7323 32.5497C30.7323 30.9211 29.6042 29.5518 28.0887 29.18V28.0885H37.0109V29.18C35.4953 29.5518 34.3673 30.9211 34.3673 32.5497C34.3673 33.0059 34.7372 33.3758 35.1934 33.3758H37.0109V33.4309C37.0109 33.8871 37.3808 34.257 37.837 34.257C38.2933 34.257 38.6632 33.8871 38.6632 33.4309V33.3758H40.4807C40.9369 33.3758 41.3068 33.0059 41.3068 32.5497C41.3068 30.9211 40.1787 29.5518 38.6632 29.18V28.0885H44.0606V42.298ZM27.2625 30.7322C27.9675 30.7322 28.5798 31.1355 28.8812 31.7235H25.6439C25.9451 31.1355 26.5576 30.7322 27.2625 30.7322ZM37.837 30.7322C38.542 30.7322 39.1543 31.1355 39.4557 31.7235H36.2184C36.5196 31.1355 37.1321 30.7322 37.837 30.7322Z" fill="#00691E"/>
<path d="M14.0444 37.7819C14.5006 37.7819 14.8705 37.412 14.8705 36.9557V35.1933C14.8705 34.7371 14.5006 34.3672 14.0444 34.3672C13.5881 34.3672 13.2183 34.7371 13.2183 35.1933V36.9557C13.2183 37.412 13.5881 37.7819 14.0444 37.7819Z" fill="#00691E"/>
</g>
<defs>
<clipPath id="clip0_344_14">
<rect width="51" height="51" fill="white"/>
</clipPath>
</defs>
</svg>
