<svg width="15" height="15" viewBox="0 0 15 15" fill="none" xmlns="http://www.w3.org/2000/svg">
<g clip-path="url(#clip0_70_1565)">
<path d="M8.61514 5.27081C8.42644 5.27081 8.27295 5.4243 8.27295 5.613C8.27295 5.80167 8.42644 5.95516 8.61514 5.95516C8.80384 5.95516 8.95732 5.80167 8.95732 5.613C8.95732 5.4243 8.80384 5.27081 8.61514 5.27081Z" fill="#00371D"/>
<path d="M6.38223 5.27081C6.19353 5.27081 6.04004 5.4243 6.04004 5.613C6.04004 5.80167 6.19353 5.95516 6.38223 5.95516C6.57093 5.95516 6.72441 5.80167 6.72441 5.613C6.72441 5.4243 6.57093 5.27081 6.38223 5.27081Z" fill="#00371D"/>
<path d="M7.7992 6.71313H7.2009C7.03183 6.71313 6.89478 6.85019 6.89478 7.01926C6.89478 7.35301 7.16633 7.62453 7.50005 7.62453C7.83377 7.62453 8.10532 7.35298 8.10532 7.01926C8.10532 6.85019 7.96827 6.71313 7.7992 6.71313Z" fill="#00371D"/>
<path d="M10.4899 3.57167C10.39 3.4352 10.1985 3.40544 10.0621 3.50528C9.69675 3.77241 9.26412 3.91359 8.81093 3.91359C7.93665 3.91359 7.13966 3.36463 6.82774 2.54762C6.78684 2.44049 6.68949 2.36519 6.57552 2.35254C6.4615 2.33982 6.35005 2.392 6.28665 2.48754C5.95047 2.99423 5.3875 3.29836 4.78079 3.30117C4.61172 3.30193 4.47532 3.43963 4.47608 3.6087C4.47687 3.7773 4.61377 3.91342 4.78217 3.91342C4.78264 3.91342 4.78311 3.91342 4.78361 3.91342C5.42459 3.91046 6.02899 3.65601 6.47606 3.21542C6.67115 3.5354 6.9308 3.81269 7.2427 4.03151C7.70371 4.35492 8.24594 4.52584 8.81087 4.52584C9.39491 4.52584 9.95254 4.34384 10.4235 3.99949C10.56 3.8997 10.5897 3.70816 10.4899 3.57167Z" fill="#00371D"/>
<path d="M7.50215 11.8654H7.49802C7.32895 11.8654 7.19189 12.0024 7.19189 12.1715C7.19189 12.3406 7.32895 12.4776 7.49802 12.4776H7.50215C7.67122 12.4776 7.80827 12.3406 7.80827 12.1715C7.8083 12.0024 7.67122 11.8654 7.50215 11.8654Z" fill="#00371D"/>
<path d="M7.50215 10.8475H7.49802C7.32895 10.8475 7.19189 10.9845 7.19189 11.1536C7.19189 11.3227 7.32895 11.4597 7.49802 11.4597H7.50215C7.67122 11.4597 7.80827 11.3227 7.80827 11.1536C7.8083 10.9845 7.67122 10.8475 7.50215 10.8475Z" fill="#00371D"/>
<path d="M5.40045 12.1281H4.25192C4.08285 12.1281 3.9458 12.2652 3.9458 12.4343C3.9458 12.6033 4.08285 12.7404 4.25192 12.7404H5.40045C5.56952 12.7404 5.70657 12.6033 5.70657 12.4343C5.70657 12.2652 5.56952 12.1281 5.40045 12.1281Z" fill="#00371D"/>
<path d="M14.6939 13.4445H14.4901C14.3525 12.3892 13.5148 11.5512 12.4596 11.4137V11.3016C12.4596 11.1325 12.3225 10.9955 12.1535 10.9955C12.083 10.9955 12.0183 11.0195 11.9665 11.0595C11.8662 10.5867 11.5478 10.1727 11.1243 9.99623L9.1541 9.17534C9.08405 9.14616 9.03879 9.07828 9.03879 9.00234V8.52562C9.03879 8.52562 9.85005 8.06021 9.85538 8.05669C10.256 7.79211 10.5192 7.32152 10.5592 6.79792C10.5598 6.79019 10.5601 6.78237 10.5601 6.7746V6.52045C10.9576 6.39114 11.2458 6.01705 11.2458 5.57692C11.2458 5.13679 10.9576 4.7627 10.5601 4.63338V3.99917C10.5601 2.31413 9.18917 0.943237 7.50413 0.943237C5.84748 0.943237 4.49446 2.26833 4.44937 3.91426C4.44161 3.94122 4.43742 3.96969 4.43742 3.99917V4.63338C4.03989 4.7627 3.75173 5.13679 3.75173 5.57692C3.75173 6.01705 4.03989 6.39114 4.43742 6.52045V6.7746C4.43742 6.78237 4.43772 6.79019 4.4383 6.79792C4.4785 7.32369 4.73974 7.79422 5.13718 8.05669C5.14266 8.0603 5.95875 8.52708 5.95875 8.52708V9.00231C5.95875 9.07819 5.91349 9.1461 5.84344 9.17531L3.87322 9.99623C3.3576 10.2111 2.99751 10.7779 2.99751 11.3746V13.4445H2.75525V10.0201C2.75525 9.5576 2.63054 9.10295 2.39461 8.70527C2.21476 8.40202 2.11966 8.05538 2.11966 7.70279V6.85265C2.11966 6.52057 1.84945 6.25037 1.51737 6.25037H1.23794C0.905859 6.25037 0.635654 6.52057 0.635654 6.85265V7.70279C0.635654 8.05541 0.540615 8.40202 0.360732 8.70524C0.124717 9.103 0 9.55766 0 10.0201V13.7506C0 13.9197 0.137051 14.0568 0.306123 14.0568C0.475195 14.0568 0.612246 13.9197 0.612246 13.7506V13.0288C1.3265 12.9656 1.88856 12.3644 1.88856 11.634C1.88856 10.9035 1.3265 10.3023 0.612246 10.2391V10.0201C0.612246 9.66758 0.707344 9.32091 0.887227 9.01766C1.07077 8.70823 1.18667 8.36425 1.22924 8.009H1.52599C1.56853 8.36422 1.68439 8.70823 1.868 9.01772C2.04785 9.32088 2.14295 9.66749 2.14295 10.0201V13.4445H1.29902C1.12995 13.4445 0.9929 13.5816 0.9929 13.7507C0.9929 13.9197 1.12995 14.0568 1.29902 14.0568H14.6938C14.8629 14.0568 15 13.9197 15 13.7507C15 13.5816 14.8629 13.4445 14.6939 13.4445ZM1.27632 11.634C1.27632 12.0264 0.988096 12.3527 0.612246 12.4125V10.8555C0.988096 10.9152 1.27632 11.2416 1.27632 11.634ZM1.50732 7.39667H1.24784V6.86267H1.50732V7.39667ZM5.46703 7.54072C5.2331 7.38234 5.07782 7.09268 5.04964 6.76227V6.26264C5.04964 6.09357 4.91259 5.95652 4.74352 5.95652C4.53422 5.95652 4.36395 5.78622 4.36395 5.57695C4.36395 5.36768 4.53425 5.19738 4.74352 5.19738C4.91259 5.19738 5.04964 5.06033 5.04964 4.89125V4.08C5.05664 4.05427 5.06042 4.0272 5.06042 3.99922C5.06042 2.6518 6.15665 1.55557 7.50407 1.55557C8.85152 1.55557 9.94773 2.6518 9.94773 3.99922V4.89123C9.94773 5.0603 10.0848 5.19735 10.2538 5.19735C10.4631 5.19735 10.6334 5.36765 10.6334 5.57692C10.6334 5.78619 10.4631 5.95649 10.2538 5.95649C10.0848 5.95649 9.94773 6.09354 9.94773 6.26261V6.76218C9.91992 7.08591 9.75896 7.3826 9.52526 7.54084L7.88165 8.48326C7.87605 8.48648 7.87061 8.48985 7.86521 8.49339C7.63573 8.64497 7.36172 8.64497 7.13218 8.49339C7.1267 8.48979 7.12113 8.48633 7.11539 8.48308L5.46703 7.54072ZM3.60973 13.4445V11.3746C3.60973 11.0295 3.82424 10.6799 4.10868 10.5614L4.83097 10.2604L6.93999 13.4445H3.60973ZM5.40653 10.0206L6.07893 9.74047C6.37784 9.61587 6.571 9.32616 6.571 9.00234V8.8771L6.80358 9.01004C7.01845 9.14961 7.25862 9.21937 7.49874 9.21937C7.73897 9.21937 7.97915 9.14956 8.19404 9.00993L8.42645 8.87666V9.00228C8.42645 9.32616 8.61961 9.6159 8.91856 9.74045L9.59306 10.0215L7.50018 13.1815L5.40653 10.0206ZM8.06042 13.4444L10.1686 10.2613L10.8887 10.5614C11.1732 10.6799 11.3877 11.0295 11.3877 11.3745V11.5217C10.5558 11.8083 9.9336 12.5478 9.81671 13.4444L8.06042 13.4444ZM10.4354 13.4445C10.5805 12.6278 11.2957 12.0056 12.1534 12.0056C13.0111 12.0056 13.7263 12.6278 13.8715 13.4445H10.4354Z" fill="#00371D"/>
<path d="M11.4123 12.7295C11.283 12.6206 11.0899 12.6372 10.981 12.7665L10.9742 12.7746C10.8663 12.9048 10.8845 13.0978 11.0146 13.2057C11.0717 13.253 11.1409 13.2761 11.2098 13.2761C11.2978 13.2761 11.3851 13.2384 11.4457 13.1653L11.4494 13.1608C11.5583 13.0315 11.5417 12.8384 11.4123 12.7295Z" fill="#00371D"/>
<path d="M13.3326 12.7747C13.0405 12.4222 12.6108 12.22 12.1534 12.22C12.0343 12.22 11.9155 12.2338 11.8005 12.261C11.636 12.2998 11.5341 12.4647 11.573 12.6293C11.6119 12.7938 11.7768 12.8957 11.9413 12.8568C12.0103 12.8405 12.0817 12.8323 12.1534 12.8323C12.4278 12.8323 12.6858 12.9537 12.8611 13.1653C12.9217 13.2384 13.009 13.2762 13.097 13.2762C13.1658 13.2762 13.2351 13.2531 13.2921 13.2058C13.4223 13.0979 13.4404 12.9049 13.3326 12.7747Z" fill="#00371D"/>
<path d="M8.28759 9.61554C8.19287 9.56087 8.07618 9.56087 7.98146 9.61554L7.4983 9.8945L7.01511 9.61554C6.92039 9.56084 6.80373 9.56087 6.70898 9.61554C6.61427 9.6702 6.55591 9.77128 6.55591 9.88064V10.6153C6.55591 10.7247 6.61427 10.8258 6.70898 10.8804C6.75636 10.9078 6.80918 10.9214 6.86206 10.9214C6.91494 10.9214 6.96776 10.9078 7.01514 10.8804L7.49833 10.6015L7.98149 10.8804C8.02887 10.9078 8.08169 10.9214 8.13457 10.9214C8.18742 10.9214 8.24027 10.9078 8.28765 10.8804C8.38236 10.8258 8.44072 10.7247 8.44072 10.6153V9.88064C8.44063 9.77128 8.3823 9.67023 8.28759 9.61554Z" fill="#00371D"/>
</g>
<defs>
<clipPath id="clip0_70_1565">
<rect width="15" height="15" fill="white"/>
</clipPath>
</defs>
</svg>
